<svg width="24" height="24" viewBox="0 0 24 24" fill="none" xmlns="http://www.w3.org/2000/svg">
  <mask id="mask0_25_3200" style="mask-type:luminance" maskUnits="userSpaceOnUse" x="0" y="0" width="24" height="24">
    <path d="M0 0H24V24H0V0Z" fill="white"/>
  </mask>
  <g mask="url(#mask0_25_3200)">
    <path d="M2.23438 9.03475C2.23438 7.92087 3.47201 5.81689 5.08094 5.19807C6.68987 4.57925 9.16514 4.57925 12.5068 4.57925C16.0959 4.57925 19.685 5.19807 19.685 5.19807L16.8385 2.35151L18.0761 0L24.7594 6.807L17.9524 13.614L16.7147 11.2625L19.5613 8.41593C19.5613 8.41593 15.9721 7.79711 12.2592 7.79711C9.04137 7.79711 6.5661 7.79711 4.95718 8.41593C3.34825 9.03475 2.23438 12.9952 2.23438 12.9952V9.03475Z" fill="#5856D6"/>
    <path d="M22.5328 15.9699C22.5328 17.0838 21.2952 19.1877 19.6862 19.8066C18.0773 20.4254 15.602 20.4254 12.2604 20.4254C8.67127 20.4254 5.08212 19.8066 5.08212 19.8066L7.92868 22.6531L6.69105 25.0046L0.0078125 18.1976L6.81481 11.3906L8.05245 13.7421L5.20588 16.5887C5.20588 16.5887 8.79503 17.2075 12.5079 17.2075C15.7258 17.2075 18.2011 17.2075 19.81 16.5887C21.4189 15.9699 22.5328 12.0094 22.5328 12.0094V15.9699Z" fill="#5856D6"/>
  </g>
</svg>
